<svg width="40" height="37" viewBox="0 0 40 37" fill="none" xmlns="http://www.w3.org/2000/svg">
<path fill-rule="evenodd" clip-rule="evenodd" d="M3.13306 34.4587C1.40987 34.4587 -1.12833e-05 33.0488 -1.1295e-05 31.3256L-1.13695e-05 20.372L7.88625 20.372L7.88625 20.3599L12.6263 20.3599C13.8482 20.3285 14.8821 19.2633 14.8821 18.01C14.8821 16.7255 13.8168 15.6602 12.5323 15.6602L6.26613 15.6602L6.26613 15.6622L-1.14015e-05 15.6622L-1.14228e-05 12.5272C-1.14345e-05 10.804 1.40987 9.3941 3.13306 9.3941L12.5323 9.3941C14.9134 9.3941 16.9499 10.24 18.6104 11.9319C20.3023 13.5924 21.1482 15.6289 21.1482 18.01C21.1482 20.3599 20.3336 22.3963 18.6731 24.0569C17.0126 25.7174 15.0074 26.5947 12.6576 26.626L6.26613 26.626L6.26613 31.3256C6.26613 33.0488 4.85625 34.4587 3.13306 34.4587Z" fill="#02BC6B"/>
<path fill-rule="evenodd" clip-rule="evenodd" d="M25.0974 5.75778C28.5589 9.11992 30.3031 13.3073 30.3031 18.0672C30.3031 22.7473 28.6319 26.9307 25.2239 30.3033L20.3852 25.7507C22.5047 23.6533 23.545 21.128 23.545 18.0672C23.545 14.9832 22.4734 12.4618 20.3031 10.3538L25.0974 5.75778Z" fill="#02897A"/>
<path fill-rule="evenodd" clip-rule="evenodd" d="M32.5055 -3.14562e-08C37.4912 4.97781 40 11.1499 40 18.2338C40 25.2071 37.5923 31.3753 32.6885 36.3638L28.0187 31.8009C31.6715 28.085 33.4614 23.5781 33.4614 18.2338C33.4614 12.8358 31.6112 8.33276 27.8787 4.60616L32.5055 -3.14562e-08Z" fill="#035B81"/>
<path fill-rule="evenodd" clip-rule="evenodd" d="M-1.14441e-05 26.6524L6.26613 26.6524L6.26613 31.326C6.26613 33.0492 4.85625 34.4591 3.13306 34.4591C1.40987 34.4591 -1.14006e-05 33.0492 -1.14123e-05 31.326L-1.14441e-05 26.6524Z" fill="#028E37"/>
</svg>
